# xmcd
#
# Track frame offsets: 
#        225
#        12325
#        27592
#        38471
#        52819
#        63370
#        77406
#        89902
#        101599
#        114990
#        129014
#        142228
#        156580
#        170038
#        181197
#        199055
#        212761
#        225439
#        238624
#        254206
#
# Disc length: 3573 seconds
#
# Revision: 3
# Processed by: cddbd v1.5.2PL0 Copyright (c) Steve Scherf et al.
# Submitted via: ExactAudioCopyFreeDBPlugin 1.0
#
DISCID=140df214
DTITLE=Ronnie Milsap - Pure Love and A Legend in My Time [SACD Hybrid Mu
DTITLE=lti-channel] 
DYEAR=1975
DGENRE=Country
TTITLE0=My Love Is Deep, My Love Is Wide
TTITLE1=Amazing Love
TTITLE2=Pure Love
TTITLE3=Four Walls
TTITLE4=Streets Of Gold
TTITLE5=Love The Second Time Around
TTITLE6=Please Don't Tell Me How The Story Ends
TTITLE7=All My Roads (Lead Back To You)
TTITLE8=Behind Closed Doors
TTITLE9=Blue Ridge Mountains Turnin' Green
TTITLE10=The Busiest Memory In Town
TTITLE11=Too Late To Worry, Too Blue To Cry
TTITLE12=(I'd Be) A Legend In My Time
TTITLE13=The Biggest Lie
TTITLE14=Country Cookin'
TTITLE15=She Came Here For The Change
TTITLE16=I'll Leave This World Loving You
TTITLE17=I'm Still Not Over You
TTITLE18=I Honestly Love You
TTITLE19=Clap Your Hands
EXTD=\nYEAR: 2000  ID3G:   2
EXTT0=
EXTT1=
EXTT2=
EXTT3=
EXTT4=
EXTT5=
EXTT6=
EXTT7=
EXTT8=
EXTT9=
EXTT10=
EXTT11=
EXTT12=
EXTT13=
EXTT14=
EXTT15=
EXTT16=
EXTT17=
EXTT18=
EXTT19=
PLAYORDER=
